<svg width="40" height="40" viewBox="0 0 40 40" fill="none" xmlns="http://www.w3.org/2000/svg">
<path d="M23.5496 18.9002C24.1996 16.1668 21.8162 13.7834 19.0829 14.4334C17.7996 14.7501 16.7496 15.8001 16.433 17.0835C15.783 19.8168 18.1662 22.2 20.8996 21.55C22.1996 21.2333 23.2496 20.1835 23.5496 18.9002Z" fill="#386FFD"/>
<path d="M10.0349 29.95C9.73488 29.95 9.41821 29.8333 9.18488 29.6167C5.95155 26.6167 4.10156 22.3833 4.10156 17.9833C4.10156 9.21663 11.2349 2.08333 20.0015 2.08333C28.7682 2.08333 35.9015 9.21663 35.9015 17.9833C35.9015 22.4167 34.1182 26.5167 30.8848 29.5667C30.3848 30.0333 29.5848 30.0167 29.1182 29.5167C28.6515 29.0167 28.6682 28.2167 29.1682 27.75C31.9015 25.1833 33.4015 21.7333 33.4015 18C33.4015 10.6166 27.3848 4.60001 20.0015 4.60001C12.6182 4.60001 6.60156 10.6166 6.60156 18C6.60156 21.7667 8.11821 25.2333 10.8849 27.8C11.3849 28.2667 11.4182 29.0667 10.9516 29.5667C10.7016 29.8167 10.3682 29.95 10.0349 29.95Z" fill="#7DF5CA"/>
<path d="M26.6659 25.5C26.3659 25.5 26.0493 25.3833 25.8159 25.1667C25.3159 24.7 25.2826 23.9 25.7659 23.4C27.1493 21.9333 27.9159 20 27.9159 18C27.9159 13.6334 24.3659 10.1001 20.0159 10.1001C15.6659 10.1001 12.116 13.6501 12.116 18C12.116 20.0167 12.8826 21.9333 14.2659 23.4C14.7326 23.9 14.716 24.7 14.216 25.1667C13.716 25.65 12.916 25.6168 12.4493 25.1168C10.6326 23.1835 9.61597 20.65 9.61597 18C9.61597 12.2667 14.2826 7.6001 20.0159 7.6001C25.7492 7.6001 30.4159 12.2667 30.4159 18C30.4159 20.65 29.4159 23.1835 27.5826 25.1168C27.3326 25.3668 26.9993 25.5 26.6659 25.5Z" fill="#7DF5CA"/>
<path d="M17.1678 27.7667L14.7678 30.7502C12.8678 33.1335 14.5512 36.65 17.6012 36.65H22.3845C25.4345 36.65 27.1345 33.1168 25.2178 30.7502L22.8178 27.7667C21.3845 25.95 18.6178 25.95 17.1678 27.7667Z" fill="#386FFD"/>
</svg>
