<svg width="40" height="40" viewBox="0 0 40 40" fill="none" xmlns="http://www.w3.org/2000/svg">
<path d="M5 27.5C4.31667 27.5 3.75 26.9333 3.75 26.25V13.75C3.75 13.0667 4.31667 12.5 5 12.5C5.68333 12.5 6.25 13.0667 6.25 13.75V26.25C6.25 26.9333 5.68333 27.5 5 27.5Z" fill="#386FFD"/>
<path d="M12.5 31.6667C11.8167 31.6667 11.25 31.1 11.25 30.4167V9.58333C11.25 8.89999 11.8167 8.33333 12.5 8.33333C13.1833 8.33333 13.75 8.89999 13.75 9.58333V30.4167C13.75 31.1 13.1833 31.6667 12.5 31.6667Z" fill="#7DF5CA"/>
<path d="M20 35.8333C19.3167 35.8333 18.75 35.2667 18.75 34.5833V5.41667C18.75 4.73334 19.3167 4.16667 20 4.16667C20.6833 4.16667 21.25 4.73334 21.25 5.41667V34.5833C21.25 35.2667 20.6833 35.8333 20 35.8333Z" fill="#386FFD"/>
<path d="M27.5 31.6667C26.8167 31.6667 26.25 31.1 26.25 30.4167V9.58333C26.25 8.89999 26.8167 8.33333 27.5 8.33333C28.1833 8.33333 28.75 8.89999 28.75 9.58333V30.4167C28.75 31.1 28.1833 31.6667 27.5 31.6667Z" fill="#7DF5CA"/>
<path d="M35 27.5C34.3167 27.5 33.75 26.9333 33.75 26.25V13.75C33.75 13.0667 34.3167 12.5 35 12.5C35.6833 12.5 36.25 13.0667 36.25 13.75V26.25C36.25 26.9333 35.6833 27.5 35 27.5Z" fill="#386FFD"/>
</svg>
