<svg width="40" height="40" viewBox="0 0 40 40" fill="none" xmlns="http://www.w3.org/2000/svg">
<path d="M8.88182 32.3667C8.69849 32.3667 8.49849 32.3167 8.33182 32.2333L4.63182 30.3833C4.21515 30.1667 3.94849 29.7333 3.94849 29.2667V24.6333C3.94849 23.95 4.51515 23.3833 5.19849 23.3833C5.88182 23.3833 6.44849 23.95 6.44849 24.6333V28.4833L9.46515 29.9833C10.0818 30.3 10.3318 31.05 10.0318 31.6667C9.7818 32.1 9.34849 32.3667 8.88182 32.3667Z" fill="#7DF5CA"/>
<path d="M19.9992 37.9167C19.8992 37.9167 19.7992 37.9 19.7158 37.8833C19.6158 37.8667 19.5158 37.8167 19.4158 37.7667L15.7325 35.9333C15.1158 35.6167 14.8658 34.8667 15.1658 34.25C15.4825 33.6333 16.2325 33.3833 16.8492 33.6833L18.7492 34.6333V32.0333C18.7492 31.35 19.3158 30.7833 19.9992 30.7833C20.6825 30.7833 21.2492 31.35 21.2492 32.0333V34.6333L23.1492 33.6833C23.7658 33.3833 24.5158 33.6333 24.8325 34.25C25.1492 34.8667 24.8992 35.6167 24.2658 35.9333L20.5825 37.7667C20.4825 37.8167 20.3825 37.85 20.2825 37.8833C20.1825 37.9 20.0992 37.9167 19.9992 37.9167Z" fill="#386FFD"/>
<path d="M31.117 32.3667C30.667 32.3667 30.217 32.1167 30.0003 31.6833C29.6836 31.0667 29.9336 30.3167 30.567 30L33.5836 28.5002V24.65C33.5836 23.9667 34.1503 23.4 34.8336 23.4C35.517 23.4 36.0836 23.9667 36.0836 24.65V29.2835C36.0836 29.7502 35.817 30.1835 35.4003 30.4002L31.7003 32.2502C31.4836 32.3168 31.3003 32.3667 31.117 32.3667Z" fill="#7DF5CA"/>
<path d="M19.9992 24.0333C19.3158 24.0333 18.7492 23.4667 18.7492 22.7833V18.9333L15.7325 17.4335C15.1158 17.1168 14.8658 16.3667 15.1658 15.7501C15.4825 15.1334 16.2325 14.8834 16.8492 15.1834L19.9992 16.75L23.1492 15.1834C23.7658 14.8834 24.5158 15.1167 24.8325 15.7501C25.1492 16.3667 24.8992 17.1168 24.2658 17.4335L21.2492 18.9333V22.7833C21.2492 23.4667 20.6825 24.0333 19.9992 24.0333Z" fill="#386FFD"/>
<path d="M5.18237 16.6165C4.49904 16.6165 3.93237 16.0498 3.93237 15.3665V10.7665V10.7498C3.93237 10.6498 3.94902 10.5498 3.96569 10.4664C3.99902 10.3331 4.04904 10.2164 4.11571 10.0998C4.16571 10.0164 4.21569 9.94978 4.28236 9.88312C4.34902 9.81645 4.43236 9.7498 4.51569 9.6998C4.54902 9.68313 4.59902 9.64978 4.63236 9.63312L8.31569 7.79978C8.93236 7.49978 9.68236 7.73313 9.99902 8.36647C10.3157 8.98313 10.0657 9.73312 9.43237 10.0498L7.96569 10.7831L9.43237 11.5165C10.049 11.8331 10.299 12.5831 9.99902 13.1998C9.69902 13.8164 8.93236 14.0664 8.31569 13.7664L6.41569 12.8165V15.4165C6.43236 16.0665 5.88236 16.6165 5.18237 16.6165Z" fill="#7DF5CA"/>
<path d="M23.6997 6.43341C23.5163 6.43341 23.3163 6.38341 23.1497 6.30007L19.9997 4.73341L16.8497 6.30007C16.233 6.61674 15.483 6.36674 15.1663 5.73341C14.8496 5.11674 15.0996 4.36672 15.733 4.05006L19.433 2.20009C19.783 2.01676 20.1997 2.01676 20.5497 2.20009L24.2497 4.05006C24.8663 4.36672 25.1163 5.11674 24.8163 5.73341C24.5997 6.18341 24.1663 6.43341 23.6997 6.43341Z" fill="#386FFD"/>
<path d="M34.8173 16.6167C34.1339 16.6167 33.5673 16.05 33.5673 15.3667V12.7667L31.6673 13.7167C31.0506 14.0333 30.3006 13.7833 29.9839 13.15C29.6673 12.5333 29.9173 11.7834 30.5506 11.4667L32.0173 10.7334L30.5506 10C29.9339 9.68335 29.6839 8.93336 29.9839 8.3167C30.2839 7.70003 31.0506 7.45001 31.6673 7.75001L35.3506 9.58335C35.3839 9.60001 35.4339 9.61668 35.4673 9.65001C35.5673 9.70001 35.6506 9.78335 35.7339 9.86668C35.7839 9.93335 35.8339 10 35.8839 10.0667C35.9506 10.1833 36.0006 10.3 36.0339 10.4333C36.0506 10.5333 36.0673 10.6333 36.0673 10.7167V10.7334V15.3333C36.0673 16.0667 35.5006 16.6167 34.8173 16.6167Z" fill="#7DF5CA"/>
</svg>
