<svg width="40" height="40" viewBox="0 0 40 40" fill="none" xmlns="http://www.w3.org/2000/svg">
<path d="M20 12.5C20.3315 12.5 20.6495 12.6317 20.8839 12.8661C21.1183 13.1005 21.25 13.4185 21.25 13.75V17.5H25C25.3315 17.5 25.6495 17.6317 25.8839 17.8661C26.1183 18.1005 26.25 18.4185 26.25 18.75C26.25 19.0815 26.1183 19.3995 25.8839 19.6339C25.6495 19.8683 25.3315 20 25 20H21.25V23.75C21.25 24.0815 21.1183 24.3995 20.8839 24.6339C20.6495 24.8683 20.3315 25 20 25C19.6685 25 19.3505 24.8683 19.1161 24.6339C18.8817 24.3995 18.75 24.0815 18.75 23.75V20H15C14.6685 20 14.3505 19.8683 14.1161 19.6339C13.8817 19.3995 13.75 19.0815 13.75 18.75C13.75 18.4185 13.8817 18.1005 14.1161 17.8661C14.3505 17.6317 14.6685 17.5 15 17.5H18.75V13.75C18.75 13.4185 18.8817 13.1005 19.1161 12.8661C19.3505 12.6317 19.6685 12.5 20 12.5ZM13.75 28.75C13.75 28.4185 13.8817 28.1005 14.1161 27.8661C14.3505 27.6317 14.6685 27.5 15 27.5H25C25.3315 27.5 25.6495 27.6317 25.8839 27.8661C26.1183 28.1005 26.25 28.4185 26.25 28.75C26.25 29.0815 26.1183 29.3995 25.8839 29.6339C25.6495 29.8683 25.3315 30 25 30H15C14.6685 30 14.3505 29.8683 14.1161 29.6339C13.8817 29.3995 13.75 29.0815 13.75 28.75Z" fill="#386FFD"/>
<path d="M35 35V11.25L23.75 0H10C8.67392 0 7.40215 0.526784 6.46447 1.46447C5.52678 2.40215 5 3.67392 5 5V35C5 36.3261 5.52678 37.5979 6.46447 38.5355C7.40215 39.4732 8.67392 40 10 40H30C31.3261 40 32.5979 39.4732 33.5355 38.5355C34.4732 37.5979 35 36.3261 35 35ZM23.75 7.5C23.75 8.49456 24.1451 9.44839 24.8483 10.1517C25.5516 10.8549 26.5054 11.25 27.5 11.25H32.5V35C32.5 35.663 32.2366 36.2989 31.7678 36.7678C31.2989 37.2366 30.663 37.5 30 37.5H10C9.33696 37.5 8.70107 37.2366 8.23223 36.7678C7.76339 36.2989 7.5 35.663 7.5 35V5C7.5 4.33696 7.76339 3.70107 8.23223 3.23223C8.70107 2.76339 9.33696 2.5 10 2.5H23.75V7.5Z" fill="#7DF5CA"/>
</svg>
