<svg width="23" height="24" viewBox="0 0 23 24" fill="none" xmlns="http://www.w3.org/2000/svg">
<path fill-rule="evenodd" clip-rule="evenodd" d="M18.5245 21.1014C16.6705 22.1841 14.7097 20.733 13.2577 19.1468C14.5813 17.3536 15.8449 15.1762 15.9133 12.9499C15.9709 10.8337 14.8285 9.21186 13.1413 8.59579C12.2497 8.26562 11.2561 8.23463 10.3429 8.50379C8.66166 8.99906 7.45687 10.4569 7.31287 12.3423C7.11487 14.724 8.51648 17.2292 9.95168 19.1456C9.10448 20.0847 7.95607 21.1122 6.71287 21.3897C4.55167 21.8993 2.70967 19.8526 3.43567 17.6204C3.80887 16.4839 9.57966 3.68152 10.5601 2.90633C11.1517 2.42543 12.0901 2.4143 12.7045 2.95262C13.6057 3.7302 19.5109 16.6501 19.8241 17.7973C20.1913 19.1539 19.6009 20.4842 18.5245 21.1014ZM11.6029 17.0772C11.1013 16.3499 10.6597 15.6332 10.3033 14.8126C9.78128 13.5912 9.43807 11.9846 10.5409 11.2513C11.2429 10.7811 12.2353 10.8409 12.8545 11.3983C13.6357 12.0898 13.4401 13.3687 13.0861 14.3532C12.7081 15.382 12.1393 16.3116 11.6029 17.0772ZM14.4997 1.16551C12.8785 -0.442285 10.1953 -0.34299 8.67726 1.19422C7.30326 2.54721 1.10047 15.9433 0.860473 17.7317C0.355273 21.1602 3.09008 24.1939 6.36968 23.969C8.45768 23.8554 10.1689 22.5633 11.6041 21.0429C14.0581 23.6567 17.2081 25.035 20.0497 23.0743C21.5161 22.0706 22.4329 20.3253 22.4029 18.4472C22.3753 15.9613 15.6397 2.2601 14.4997 1.16551Z" fill="white"/>
</svg>
