<svg width="22" height="24" viewBox="0 0 22 24" fill="none" xmlns="http://www.w3.org/2000/svg">
<path d="M10.6551 5.78794C10.3996 4.39528 11.0581 2.96208 11.8512 1.99622C12.7252 0.930515 14.225 0.11325 15.5068 0.0234375C15.7233 1.48355 15.1274 2.90616 14.343 3.91242C13.5016 4.99345 12.055 5.83177 10.6551 5.78794ZM18.1734 10.8343C18.57 9.72773 19.3557 8.73215 20.5747 8.06044C19.3429 6.52331 17.6134 5.63091 15.9814 5.63091C13.8221 5.63091 12.9091 6.65967 11.4093 6.65967C9.86428 6.65967 8.69217 5.63091 6.82181 5.63091C4.98773 5.63091 3.03543 6.74878 1.79728 8.65795C1.34203 9.36366 1.03364 10.2404 0.865449 11.2169C0.398761 13.9562 1.09589 17.5242 3.1754 20.6924C4.1865 22.2297 5.5342 23.9613 7.29482 23.9764C8.86321 23.9917 9.30815 22.9736 11.4314 22.9631C13.5577 22.951 13.9607 23.9869 15.5269 23.972C17.2881 23.9571 18.71 22.0408 19.7211 20.5036C20.4411 19.4006 20.7133 18.8434 21.2731 17.5963C18.4266 16.5228 17.2558 13.3861 18.1734 10.8343Z" fill="white"/>
</svg>
