<svg width="23" height="23" viewBox="0 0 23 23" fill="none" xmlns="http://www.w3.org/2000/svg">
<path fill-rule="evenodd" clip-rule="evenodd" d="M0.25 11.5C0.25 5.28679 5.28679 0.25 11.5 0.25C17.7131 0.25 22.75 5.28679 22.75 11.5C22.75 17.7131 17.7131 22.75 11.5 22.75C5.28679 22.75 0.25 17.7131 0.25 11.5ZM9.57951 15.6705C9.14016 15.2312 9.14016 14.5188 9.57951 14.0795L12.159 11.5L9.57951 8.9205C9.14016 8.48115 9.14016 7.76885 9.57951 7.3295C10.0188 6.89016 10.7312 6.89016 11.1705 7.3295L14.2258 10.3848C14.8417 11.0007 14.8417 11.9993 14.2258 12.6152L11.1705 15.6705C10.7312 16.1098 10.0188 16.1098 9.57951 15.6705Z" fill="#40597C"/>
</svg>
