<svg width="20" height="20" viewBox="0 0 20 20" fill="none" xmlns="http://www.w3.org/2000/svg">
<path fill-rule="evenodd" clip-rule="evenodd" d="M3 2C2.44772 2 2 2.44772 2 3V17C2 17.5523 2.44772 18 3 18H10H11C11.5523 18 12 17.5523 12 17V3C12 2.44772 11.5523 2 11 2H3ZM3 20H10H11H17C18.6569 20 20 18.6569 20 17V7C20 5.34315 18.6569 4 17 4H14V3C14 1.34315 12.6569 0 11 0H3C1.34315 0 0 1.34315 0 3V17C0 18.6569 1.34315 20 3 20ZM17 18H13.8293C13.9398 17.6872 14 17.3506 14 17V6H17C17.5523 6 18 6.44772 18 7V17C18 17.5523 17.5523 18 17 18ZM5 12H3V14H5V12ZM6 12H8V14H6V12ZM11 12H9V14H11V12ZM15 12H17V14H15V12ZM17 8H15V10H17V8ZM3 8H5V10H3V8ZM8 8H6V10H8V8ZM9 8H11V10H9V8ZM5 4H3V6H5V4ZM6 4H8V6H6V4ZM11 4H9V6H11V4Z" fill="#7DF5CA"/>
</svg>
