<svg width="25" height="24" viewBox="0 0 25 24" fill="none" xmlns="http://www.w3.org/2000/svg">
<path fill-rule="evenodd" clip-rule="evenodd" d="M23.9858 9.6047H12.4535C12.4535 10.804 12.4535 13.2025 12.4461 14.4018H19.1288C18.8727 15.6011 17.9648 17.2805 16.6819 18.126C16.6819 18.126 16.6795 18.133 16.677 18.1318C14.9714 19.258 12.7206 19.5136 11.0493 19.1777C8.42971 18.6572 6.35653 16.7574 5.51476 14.3443C5.51966 14.3407 5.52336 14.3075 5.52703 14.3051C5.00016 12.8083 5.00016 10.804 5.52703 9.6047H5.5258C6.20461 7.40035 8.34025 5.38917 10.9636 4.83868C13.0735 4.39133 15.4542 4.8756 17.2051 6.51388C17.4379 6.28601 20.4276 3.36697 20.6518 3.1295C14.67 -2.28785 5.09205 -0.382177 1.50812 6.61349H1.5069C1.5069 6.61349 1.50813 6.61378 1.50078 6.62696C-0.272194 10.063 -0.198679 14.1118 1.51303 17.3836C1.50813 17.3872 1.50446 17.3894 1.50078 17.393C3.05198 20.4033 5.87501 22.7119 9.27637 23.591C12.8897 24.5385 17.4881 23.8909 20.5685 21.1049L20.5722 21.1084C23.182 18.7577 24.8067 14.7534 23.9858 9.6047Z" fill="white"/>
</svg>
