<svg width="31" height="12" viewBox="0 0 31 12" fill="none" xmlns="http://www.w3.org/2000/svg">
<path d="M29.6378 10.203C29.2198 10.203 28.8808 10.542 28.8808 10.96C28.8808 11.378 29.2198 11.717 29.6378 11.717C30.0558 11.717 30.3948 11.378 30.3948 10.96C30.3948 10.751 30.3098 10.562 30.1728 10.425C30.0358 10.288 29.8468 10.203 29.6378 10.203ZM30.0728 11.402C29.9598 11.515 29.8038 11.585 29.6308 11.585C29.2858 11.585 29.0058 11.305 29.0058 10.96C29.0058 10.615 29.2838 10.337 29.6278 10.335L29.6308 10.334C29.9758 10.335 30.2558 10.614 30.2558 10.96C30.2558 11.133 30.1858 11.289 30.0728 11.402ZM29.9248 10.96C29.9638 10.919 29.9878 10.863 29.9878 10.802C29.9878 10.798 29.9878 10.794 29.9878 10.79C29.9878 10.785 29.9888 10.78 29.9888 10.775C29.9888 10.705 29.9578 10.642 29.9098 10.599C29.8548 10.555 29.7838 10.528 29.7068 10.528C29.6968 10.528 29.6878 10.528 29.6778 10.529H29.3388V11.402H29.5008V11.046H29.6168L29.8328 11.402H30.0028L29.7778 11.031C29.8358 11.025 29.8868 11 29.9248 10.961V10.96ZM29.6918 10.899H29.4998V10.652H29.6918C29.7178 10.653 29.7408 10.659 29.7638 10.668L29.7618 10.667C29.7818 10.674 29.7978 10.687 29.8078 10.705C29.8238 10.721 29.8228 10.744 29.8228 10.775C29.8228 10.776 29.8228 10.777 29.8228 10.777C29.8228 10.801 29.8168 10.824 29.8078 10.844C29.7948 10.859 29.7788 10.871 29.7628 10.881H29.7618C29.7408 10.889 29.7178 10.895 29.6928 10.897L29.6918 10.899ZM0.403809 0.344984H2.57481V2.51598H0.403809V0.344984ZM8.24581 3.67298C8.23281 3.67298 8.21781 3.67398 8.20281 3.67398C7.72681 3.67398 7.27581 3.78498 6.87581 3.98298L6.89281 3.97498C6.48181 4.17798 6.13881 4.45998 5.87081 4.80298L5.86581 4.80898L5.75681 4.95498V3.82798H3.72481V11.646H5.77281V7.62998C5.77081 7.59398 5.76981 7.55298 5.76981 7.51098C5.76981 6.93698 5.97581 6.41198 6.31681 6.00398L6.31381 6.00798C6.63681 5.66498 7.09381 5.45198 7.59981 5.45198C7.60581 5.45198 7.61281 5.45198 7.61881 5.45198C7.65181 5.44998 7.68981 5.44798 7.72881 5.44798C8.21881 5.44798 8.66081 5.65698 8.96881 5.99098L8.96981 5.99198C9.25281 6.36898 9.42181 6.84498 9.42181 7.36098C9.42181 7.40698 9.42081 7.45298 9.41781 7.49798V7.49198V11.646H11.4958V7.21198C11.5008 7.14098 11.5038 7.05798 11.5038 6.97398C11.5038 6.06698 11.1768 5.23698 10.6348 4.59398L10.6398 4.59898C10.0758 4.02298 9.28981 3.66698 8.42081 3.66698C8.35881 3.66698 8.29681 3.66898 8.23581 3.67198H8.24381L8.24581 3.67298ZM25.9218 0.182983H27.9848V11.655H25.9218V0.182983ZM23.7358 4.85698C23.3838 4.49298 22.9588 4.19998 22.4858 4.00198L22.4608 3.99298C21.9938 3.79698 21.4498 3.68298 20.8798 3.68298C20.8598 3.68298 20.8388 3.68298 20.8188 3.68298H20.8218C20.8128 3.68298 20.8018 3.68298 20.7898 3.68298C19.1268 3.68298 17.6988 4.69098 17.0848 6.12998L17.0748 6.15598C16.8738 6.61198 16.7568 7.14498 16.7568 7.70398C16.7568 7.71898 16.7568 7.73398 16.7568 7.74898V7.74698C16.7568 7.75598 16.7568 7.76698 16.7568 7.77798C16.7568 8.33998 16.8678 8.87698 17.0678 9.36698L17.0578 9.33898C17.2628 9.83998 17.5478 10.268 17.9008 10.629L17.8998 10.628C18.2618 10.993 18.6968 11.286 19.1798 11.485L19.2058 11.494C19.6888 11.7 20.2508 11.819 20.8408 11.819C20.8558 11.819 20.8708 11.819 20.8858 11.819H20.8838C20.9188 11.82 20.9608 11.821 21.0028 11.821C22.3418 11.821 23.5428 11.227 24.3558 10.288L24.3608 10.282L22.8778 9.15198C22.3848 9.68698 21.6818 10.021 20.8998 10.025C20.8668 10.027 20.8278 10.028 20.7888 10.028C20.2988 10.028 19.8438 9.87698 19.4688 9.61898L19.4768 9.62398C19.1198 9.35898 18.8568 8.98298 18.7388 8.54798L18.7358 8.53398L18.7118 8.46398H24.8538V7.73098C24.8538 7.72398 24.8538 7.71598 24.8538 7.70798C24.8538 7.14698 24.7458 6.60998 24.5498 6.11898L24.5598 6.14798C24.3538 5.64898 24.0748 5.22098 23.7318 4.85498L23.7338 4.85698H23.7358ZM18.7298 7.01198C18.8888 6.10598 19.6698 5.42698 20.6088 5.42698C20.6758 5.42698 20.7418 5.42998 20.8068 5.43698L20.7988 5.43598C20.8588 5.42898 20.9288 5.42498 20.9988 5.42498C21.9358 5.42498 22.7158 6.10098 22.8758 6.99198L22.8778 7.00398L18.7298 7.01198ZM14.6888 0.784984H12.6258V8.34898C12.6248 8.38698 12.6248 8.43198 12.6248 8.47698C12.6248 9.00398 12.6848 9.51698 12.7968 10.01L12.7878 9.96398C12.8828 10.368 13.0748 10.718 13.3388 11L13.3378 10.999C13.6078 11.265 13.9468 11.462 14.3258 11.559L14.3408 11.562C14.7678 11.671 15.2588 11.734 15.7648 11.734C15.8158 11.734 15.8668 11.733 15.9168 11.732H15.9088H16.1788V9.81598C16.1558 9.81598 16.1288 9.81698 16.1028 9.81698C15.8688 9.81698 15.6378 9.79998 15.4128 9.76698L15.4388 9.76998C15.2498 9.75198 15.0808 9.67298 14.9508 9.55298L14.9518 9.55398C14.8378 9.42798 14.7598 9.26598 14.7358 9.08698V9.08298C14.7058 8.87798 14.6888 8.64098 14.6888 8.39998C14.6888 8.37398 14.6888 8.34798 14.6898 8.32198V8.32598V5.59898H16.1808V3.82898H14.6898L14.6888 0.784984ZM0.457809 3.82898H2.52081V11.647H0.457809V3.82898Z" fill="white"/>
</svg>
