<svg width="40" height="40" viewBox="0 0 40 40" fill="none" xmlns="http://www.w3.org/2000/svg">
<path d="M36.6667 14.1666C36.6667 20.1499 31.8167 24.9999 25.8333 24.9999C25.55 24.9999 25.25 24.9833 24.9667 24.9666C24.55 19.6833 20.3167 15.4499 15.0333 15.0332C15.0166 14.7499 15 14.4499 15 14.1666C15 8.18325 19.85 3.33325 25.8333 3.33325C31.8167 3.33325 36.6667 8.18325 36.6667 14.1666Z" stroke="#386FFD" stroke-width="3" stroke-linecap="round" stroke-linejoin="round"/>
<path d="M25.0002 25.8333C25.0002 31.8167 20.1502 36.6667 14.1668 36.6667C8.1835 36.6667 3.3335 31.8167 3.3335 25.8333C3.3335 19.85 8.1835 15 14.1668 15C14.4502 15 14.7501 15.0166 15.0335 15.0333C20.3168 15.45 24.5502 19.6833 24.9668 24.9667C24.9835 25.25 25.0002 25.55 25.0002 25.8333Z" stroke="#7DF5CA" stroke-width="3" stroke-linecap="round" stroke-linejoin="round"/>
<path d="M12.7 24.3667L14.1667 21.6667L15.6333 24.3667L18.3333 25.8334L15.6333 27.3001L14.1667 30.0001L12.7 27.3001L10 25.8334L12.7 24.3667Z" fill="#386FFD" stroke="#7DF5CA" stroke-width="3" stroke-linecap="round" stroke-linejoin="round"/>
</svg>
