<svg width="40" height="40" viewBox="0 0 40 40" fill="none" xmlns="http://www.w3.org/2000/svg">
<path d="M18.2847 3.33325H14.9513C6.618 3.33325 3.28467 6.66659 3.28467 14.9999V24.9999C3.28467 33.3333 6.618 36.6666 14.9513 36.6666H24.9513C33.2847 36.6666 36.618 33.3333 36.618 24.9999V21.6666" stroke="#7DF5CA" stroke-width="3" stroke-linecap="round" stroke-linejoin="round"/>
<path d="M36.4658 5.93362C34.4158 11.0503 29.2658 18.0169 24.9658 21.4669L22.3325 23.5669C21.9992 23.8169 21.6658 24.0169 21.2825 24.1669C21.2825 23.9169 21.2658 23.6669 21.2325 23.4003C21.0825 22.2836 20.5825 21.2336 19.6825 20.3503C18.7658 19.4336 17.6658 18.9169 16.5324 18.7669C16.2658 18.7503 15.9991 18.7336 15.7324 18.7503C15.8824 18.3336 16.0991 17.9503 16.3824 17.6336L18.4825 15.0003C21.9325 10.7003 28.9158 5.51695 34.0158 3.46695C34.7992 3.16695 35.5658 3.40029 36.0492 3.88362C36.5492 4.38362 36.7825 5.15029 36.4658 5.93362Z" fill="#7DF5CA" stroke="#386FFD" stroke-width="3" stroke-linecap="round" stroke-linejoin="round"/>
<path d="M21.3003 24.1499C21.3003 25.6166 20.7337 27.0166 19.6837 28.0832C18.867 28.8999 17.767 29.4666 16.4503 29.6332L13.167 29.9832C11.3837 30.1832 9.85032 28.6666 10.0503 26.8499L10.4003 23.5666C10.717 20.6499 13.1503 18.7832 15.7503 18.7332C16.017 18.7166 16.2837 18.7332 16.5503 18.7499C17.6837 18.8999 18.7837 19.4166 19.7003 20.3332C20.6003 21.2332 21.1003 22.2666 21.2503 23.3832C21.2837 23.6499 21.3003 23.9166 21.3003 24.1499Z" fill="#386FFD" stroke="#386FFD" stroke-width="3" stroke-linecap="round" stroke-linejoin="round"/>
<g opacity="0.4">
<path d="M26.3655 19.9665C26.3655 16.4832 23.5488 13.6499 20.0488 13.6499L26.3655 19.9665Z" fill="#7DF5CA"/>
<path d="M26.3655 19.9665C26.3655 16.4832 23.5488 13.6499 20.0488 13.6499" stroke="#386FFD" stroke-width="3" stroke-linecap="round" stroke-linejoin="round"/>
</g>
</svg>
