<svg width="40" height="40" viewBox="0 0 40 40" fill="none" xmlns="http://www.w3.org/2000/svg">
<path d="M31.6668 26.6667V10.8333C31.6668 9 30.1668 7.5 28.3335 7.5H20.8335" stroke="#7DF5CA" stroke-width="3" stroke-linecap="round" stroke-linejoin="round"/>
<path d="M25 3.33325L20 7.49992L25 11.6666" fill="#7DF5CA"/>
<path d="M25 3.33325L20 7.49992L25 11.6666" stroke="#7DF5CA" stroke-width="3" stroke-linecap="round" stroke-linejoin="round"/>
<path d="M8.3335 15V26.6667" stroke="#7DF5CA" stroke-width="3" stroke-linecap="round" stroke-linejoin="round"/>
<path d="M8.75016 14.1666C11.7417 14.1666 14.1668 11.7415 14.1668 8.74992C14.1668 5.75837 11.7417 3.33325 8.75016 3.33325C5.75861 3.33325 3.3335 5.75837 3.3335 8.74992C3.3335 11.7415 5.75861 14.1666 8.75016 14.1666Z" stroke="#386FFD" stroke-width="3" stroke-linecap="round" stroke-linejoin="round"/>
<path d="M8.3335 36.6667C11.0949 36.6667 13.3335 34.4282 13.3335 31.6667C13.3335 28.9052 11.0949 26.6667 8.3335 26.6667C5.57208 26.6667 3.3335 28.9052 3.3335 31.6667C3.3335 34.4282 5.57208 36.6667 8.3335 36.6667Z" stroke="#386FFD" stroke-width="3" stroke-linecap="round" stroke-linejoin="round"/>
<path d="M31.6665 36.6667C34.428 36.6667 36.6665 34.4282 36.6665 31.6667C36.6665 28.9052 34.428 26.6667 31.6665 26.6667C28.905 26.6667 26.6665 28.9052 26.6665 31.6667C26.6665 34.4282 28.905 36.6667 31.6665 36.6667Z" stroke="#386FFD" stroke-width="3" stroke-linecap="round" stroke-linejoin="round"/>
</svg>
