<svg width="30" height="34" viewBox="0 0 30 34" fill="none" xmlns="http://www.w3.org/2000/svg">
<path d="M14.9998 33.6667C12.5165 33.6667 10.3665 31.7167 8.86649 28.5167C7.31559 28.7762 5.72825 28.7195 4.19982 28.35C3.45326 28.1819 2.74954 27.8611 2.13288 27.4079C1.51622 26.9548 0.999947 26.379 0.616486 25.7167C-0.650181 23.3667 0.0998193 20.2 2.38315 17C0.0998193 13.8 -0.650181 10.6334 0.616486 8.28337C0.999947 7.62111 1.51622 7.04531 2.13288 6.59213C2.74954 6.13896 3.45326 5.81821 4.19982 5.65004C5.72825 5.28056 7.31559 5.22387 8.86649 5.48337C10.3665 2.28337 12.5165 0.333374 14.9998 0.333374C17.4832 0.333374 19.6332 2.28337 21.1332 5.48337C22.684 5.22387 24.2714 5.28056 25.7998 5.65004C26.5464 5.81821 27.2501 6.13896 27.8668 6.59213C28.4834 7.04531 28.9997 7.62111 29.3832 8.28337C30.6498 10.6334 29.8998 13.8 27.6165 17C29.8998 20.2 30.6498 23.3667 29.3832 25.7167C28.9997 26.379 28.4834 26.9548 27.8668 27.4079C27.2501 27.8611 26.5464 28.1819 25.7998 28.35C24.2705 28.7128 22.6845 28.7695 21.1332 28.5167C19.6332 31.7167 17.4832 33.6667 14.9998 33.6667ZM12.2165 27.7334C13.1165 29.4 14.1498 30.3334 14.9998 30.3334C15.8498 30.3334 16.8832 29.4167 17.7665 27.7334C16.8252 27.4423 15.9015 27.0973 14.9998 26.7C14.0936 27.1001 13.1642 27.4451 12.2165 27.7334ZM22.2165 25.2834C23.1459 25.3956 24.0878 25.3448 24.9998 25.1334C25.3076 25.0793 25.601 24.9627 25.8619 24.7907C26.1228 24.6187 26.3456 24.395 26.5165 24.1334C26.9998 23.2167 26.6498 21.5834 25.4498 19.65C24.6983 20.4181 23.9025 21.1416 23.0665 21.8167C22.8908 23.0049 22.6346 24.1798 22.2998 25.3334L22.2165 25.2834ZM4.61649 19.65C3.41649 21.5834 3.06649 23.2167 3.54982 24.1334C3.72074 24.395 3.94354 24.6187 4.20442 24.7907C4.4653 24.9627 4.75871 25.0793 5.06649 25.1334C5.92727 25.3445 6.81702 25.4121 7.69982 25.3334C7.3897 24.1947 7.15584 23.0365 6.99982 21.8667C6.16238 21.1754 5.36655 20.4353 4.61649 19.65ZM10.1498 20.05C10.8832 20.6 11.6998 21.15 12.5665 21.7167C13.4332 22.2834 14.2332 22.6667 14.9998 23.0667C15.7998 22.6667 16.6665 22.2167 17.4332 21.7167C18.1998 21.2167 19.0998 20.6334 19.8498 20.05C19.9521 19.0366 20.0022 18.0186 19.9998 17C20.0022 15.9815 19.9521 14.9635 19.8498 13.95C19.1165 13.4 18.2998 12.85 17.4332 12.2834C16.5665 11.7167 15.7665 11.3334 14.9998 10.9334C14.1998 11.3334 13.3332 11.7834 12.5665 12.2834C11.7998 12.7834 10.8998 13.3667 10.1498 13.95C9.94982 15.9785 9.94982 18.0216 10.1498 20.05ZM22.9998 12.1834C23.8358 12.8585 24.6316 13.582 25.3832 14.35C26.5832 12.4167 26.9332 10.7834 26.4498 9.86671C26.2789 9.60511 26.0561 9.38139 25.7952 9.20938C25.5343 9.03737 25.2409 8.92074 24.9332 8.86671C24.0737 8.64721 23.1825 8.57953 22.2998 8.66671C22.6121 9.82182 22.846 10.9967 22.9998 12.1834ZM6.74982 8.66671C6.18778 8.65772 5.62711 8.725 5.08315 8.86671C4.77538 8.92074 4.48197 9.03737 4.22109 9.20938C3.96021 9.38139 3.73741 9.60511 3.56649 9.86671C3.08315 10.7834 3.43315 12.4167 4.63315 14.35C5.37928 13.5825 6.16951 12.859 6.99982 12.1834C7.15364 10.9967 7.38751 9.82182 7.69982 8.66671H6.74982ZM12.2332 6.26671C13.1744 6.5578 14.0982 6.90281 14.9998 7.30004C15.906 6.90002 16.8355 6.55495 17.7832 6.26671C16.8832 4.58337 15.8498 3.66671 14.9998 3.66671C14.1498 3.66671 13.1165 4.58337 12.2332 6.26671Z" fill="#7DF5CA"/>
</svg>
