<svg width="40" height="40" viewBox="0 0 40 40" fill="none" xmlns="http://www.w3.org/2000/svg">
<path d="M23.3332 3.33325C26.6665 3.33325 28.3332 5.01659 28.3332 8.38325V20.1333C28.3332 23.4499 25.9832 24.7333 23.0998 22.9999L20.8998 21.6666C20.3998 21.3666 19.5998 21.3666 19.0998 21.6666L16.8998 22.9999C14.0165 24.7333 11.6665 23.4499 11.6665 20.1333V8.38325C11.6665 5.01659 13.3332 3.33325 16.6665 3.33325H23.3332Z" fill="#386FFD" stroke="#386FFD" stroke-width="3" stroke-linecap="round" stroke-linejoin="round"/>
<path d="M11.3668 8.3166C5.6835 9.2666 3.3335 12.7666 3.3335 19.8333V24.8833C3.3335 33.3 6.66683 36.6667 15.0002 36.6667H25.0002C33.3335 36.6667 36.6668 33.3 36.6668 24.8833V19.8333C36.6668 12.6499 34.2335 9.13327 28.3335 8.2666" stroke="#7DF5CA" stroke-width="3" stroke-linecap="round" stroke-linejoin="round"/>
</svg>
